<svg width="42" height="73" viewBox="0 0 42 73" fill="none" xmlns="http://www.w3.org/2000/svg">
<path d="M42 60.1494V72.3H2.27294V60.1494H15.9106V13.7561C15.3835 14.5595 14.4941 15.4632 13.2424 16.4674C12.0565 17.4046 10.6729 18.3419 9.09176 19.2791C7.57647 20.1494 5.99529 20.8858 4.34824 21.4883C2.76706 22.0908 1.31765 22.3921 0 22.3921V9.94021C1.77882 9.94021 3.59059 9.47159 5.43529 8.53435C7.28 7.59712 8.99294 6.52599 10.5741 5.32096C12.1553 4.11594 13.4071 3.01134 14.3294 2.00716C15.3176 0.93603 15.8447 0.366994 15.9106 0.300049H29.4494V60.1494H42Z" fill="#69BF45"/>
</svg>
