<svg width="52" height="72" viewBox="0 0 52 72" fill="none" xmlns="http://www.w3.org/2000/svg">
<path d="M0 72C0 67.9277 0.268734 64.3561 0.806202 61.2851C1.34367 58.1474 2.18346 55.3769 3.32558 52.9736C4.53488 50.5035 6.0801 48.3338 7.96124 46.4645C9.84238 44.5953 12.1602 42.8261 14.9147 41.1572C17.2662 39.822 19.6848 38.5202 22.1705 37.2517C24.7235 35.9833 27.0749 34.6481 29.2248 33.2462C31.4419 31.8442 33.2222 30.242 34.5659 28.4395C35.9767 26.637 36.6822 24.4339 36.6822 21.8303C36.6822 19.8275 36.2455 18.1252 35.3721 16.7232C34.5659 15.2545 33.3566 14.1196 31.7442 13.3185C30.199 12.5174 28.3178 12.1168 26.1008 12.1168C23.5478 12.1168 21.1628 12.5841 18.9457 13.5188C16.7959 14.3866 14.8475 15.4882 13.1008 16.8234C11.4212 18.0918 9.97675 19.3602 8.76744 20.6287L0.302326 11.8164C1.24289 10.7483 2.51938 9.54659 4.13178 8.21141C5.81137 6.87622 7.79328 5.57441 10.0775 4.30598C12.4289 3.03755 15.0827 2.00278 18.0388 1.20167C20.9948 0.400557 24.2532 0 27.814 0C33.0543 0 37.4548 0.934631 41.0155 2.80389C44.5762 4.6064 47.2636 7.10987 49.0775 10.3143C50.9587 13.452 51.8992 17.0904 51.8992 21.2295C51.8992 24.2337 51.3954 26.904 50.3876 29.2406C49.447 31.5104 48.137 33.5132 46.4574 35.249C44.7778 36.9847 42.8966 38.5535 40.814 39.9555C38.7313 41.2907 36.5814 42.5925 34.3643 43.8609C30.8708 45.7302 28.0491 47.3658 25.8992 48.7677C23.7494 50.1697 22.0362 51.4715 20.7597 52.6732C19.5504 53.8748 18.6098 55.0765 17.938 56.2782C17.3333 57.4131 16.7959 58.6147 16.3256 59.8832H52V72H0Z" fill="#69BF45"/>
</svg>
