<svg width="53" height="72" viewBox="0 0 53 72" fill="none" xmlns="http://www.w3.org/2000/svg">
<path d="M25.213 72C21.3156 72 17.76 71.5372 14.5463 70.6116C11.4011 69.6198 8.63182 68.2314 6.23866 66.4463C3.91387 64.595 2.06772 62.4132 0.700195 59.9008L8.08481 50.876C8.76857 52.3306 9.86259 53.7521 11.3669 55.1405C12.8711 56.5289 14.7515 57.6529 17.0079 58.5124C19.2643 59.3719 21.8284 59.8017 24.7002 59.8017C27.5036 59.8017 29.931 59.405 31.9822 58.6116C34.0335 57.8182 35.6062 56.7273 36.7002 55.3388C37.8626 53.8843 38.4438 52.1322 38.4438 50.0826C38.4438 47.9008 37.7258 46.0496 36.2899 44.5289C34.9224 43.0083 32.8711 41.8512 30.1361 41.0578C27.401 40.2645 24.0506 39.8678 20.0848 39.8678H16.7002V29.9504H20.2899C25.213 29.9504 29.1446 29.124 32.0848 27.4711C35.0934 25.8182 36.5976 23.4711 36.5976 20.4298C36.5976 18.5785 36.0848 16.9917 35.0592 15.6694C34.0335 14.281 32.666 13.2562 30.9566 12.595C29.2472 11.8678 27.3669 11.5041 25.3156 11.5041C21.8968 11.5041 18.854 12.2975 16.1874 13.8843C13.5891 15.405 11.6062 17.3884 10.2387 19.8347L1.31558 10.2149C2.81985 8.09917 4.87114 6.31405 7.46943 4.85951C10.0677 3.33885 12.9737 2.14876 16.1874 1.28926C19.4694 0.429752 22.854 0 26.3412 0C31.1959 0 35.5036 0.826447 39.2643 2.47934C43.025 4.06612 45.9652 6.24794 48.0848 9.02479C50.2045 11.8017 51.2643 14.9752 51.2643 18.5455C51.2643 21.1901 50.6831 23.6033 49.5207 25.7851C48.4267 27.9669 46.854 29.7851 44.8028 31.2397C42.7515 32.6942 40.3241 33.7521 37.5207 34.4132C40.5293 34.876 43.1617 35.9669 45.4181 37.686C47.7429 39.3388 49.5207 41.4545 50.7515 44.0331C52.0506 46.5455 52.7002 49.2893 52.7002 52.2645C52.7002 56.4298 51.4694 59.9669 49.0079 62.876C46.6147 65.7851 43.3327 68.0331 39.1617 69.6198C35.0592 71.2066 30.4096 72 25.213 72Z" fill="#69BF45"/>
</svg>
