<svg width="254" height="57" viewBox="0 0 254 57" fill="none" xmlns="http://www.w3.org/2000/svg">
<path d="M225.301 28.5368L224.133 24.711L225.301 28.5368ZM253.531 22.8798C254.569 20.9298 253.83 18.5074 251.88 17.4692L220.103 0.551182C218.153 -0.486994 215.73 0.252184 214.692 2.20218C213.654 4.15218 214.393 6.57457 216.343 7.61274L244.589 22.651L229.551 50.8973C228.513 52.8472 229.252 55.2696 231.202 56.3078C233.152 57.346 235.575 56.6068 236.613 54.6568L253.531 22.8798ZM226.468 32.3627L251.167 24.8258L248.833 17.1742L224.133 24.711L226.468 32.3627ZM0.577258 24.7384C72.9415 52.2783 152.412 54.9606 226.468 32.3627L224.133 24.711C151.775 46.7906 74.1275 44.1699 3.42274 17.2616L0.577258 24.7384Z" fill="url(#paint0_linear_562_1995)"/>
<defs>
<linearGradient id="paint0_linear_562_1995" x1="2" y1="21" x2="274.815" y2="2.92207" gradientUnits="userSpaceOnUse">
<stop stop-color="#7AC23D"/>
<stop offset="0.510417" stop-color="#23B465"/>
<stop offset="1" stop-color="#3E86C2"/>
</linearGradient>
</defs>
</svg>
