<svg width="254" height="57" viewBox="0 0 254 57" fill="none" xmlns="http://www.w3.org/2000/svg">
<path d="M225.301 28.4632L224.133 32.289L225.301 28.4632ZM253.531 34.1202C254.569 36.0702 253.83 38.4926 251.88 39.5308L220.103 56.4488C218.153 57.487 215.73 56.7478 214.692 54.7978C213.654 52.8478 214.393 50.4254 216.343 49.3873L244.589 34.349L229.551 6.10275C228.513 4.15275 229.252 1.73036 231.202 0.692181C233.152 -0.345993 235.575 0.393185 236.613 2.34318L253.531 34.1202ZM226.468 24.6373L251.167 32.1742L248.833 39.8258L224.133 32.289L226.468 24.6373ZM0.577258 32.2616C72.9415 4.72171 152.412 2.03942 226.468 24.6373L224.133 32.289C151.775 10.2094 74.1275 12.8301 3.42274 39.7384L0.577258 32.2616Z" fill="url(#paint0_linear_562_1996)"/>
<defs>
<linearGradient id="paint0_linear_562_1996" x1="2" y1="36" x2="274.815" y2="54.0779" gradientUnits="userSpaceOnUse">
<stop stop-color="#7AC23D"/>
<stop offset="0.510417" stop-color="#23B465"/>
<stop offset="1" stop-color="#3E86C2"/>
</linearGradient>
</defs>
</svg>
