<svg width="219" height="115" viewBox="0 0 219 115" fill="none" xmlns="http://www.w3.org/2000/svg">
<path fill-rule="evenodd" clip-rule="evenodd" d="M160.297 21.574C156.633 24.3527 154.03 27.9998 151.364 31.7339L151.364 31.7342C150.421 33.0546 149.471 34.3859 148.463 35.6935C147.274 29.4439 147.274 23.4257 151.074 18.0441C153.495 14.441 156.626 11.367 160.275 9.00923C163.925 6.6515 168.018 5.05936 172.304 4.32972C178.046 3.60068 183.701 2.3019 189.185 0.45265C192.375 -0.82042 193.97 0.684128 192.781 3.80894C191.081 9.32095 190.106 15.0301 189.881 20.7928C189.209 25.9588 186.832 30.7544 183.124 34.4221C179.415 38.0898 174.588 40.4206 169.404 41.0462C163.168 42.001 160.355 45.1547 157.803 50.6232C150.12 67.8934 146.118 86.1672 142.117 104.431C141.768 106.026 141.419 107.62 141.067 109.213L141.032 109.376C140.326 112.621 139.808 115 135.615 115C131.351 115 130.713 112.107 130.075 109.213C126.449 92.3162 122.36 75.5059 117.226 58.985C111.72 39.7352 101.868 21.9989 88.4254 7.13626C87.8619 6.33025 87.3671 5.47854 86.9462 4.59011C91.9594 5.69776 96.5015 8.33757 99.9399 12.1418C110.753 22.3005 118.926 34.9317 123.752 48.9451C126.119 55.1246 127.853 61.473 129.591 67.8386C131.304 74.1101 133.022 80.3985 135.354 86.5585C142.576 63.73 149.855 41.133 164.618 21.8344C165.315 21.1979 165.924 20.3299 165.605 19.5487C165.285 18.7675 164.328 19.2304 163.719 19.5487C162.507 20.0952 161.359 20.7745 160.297 21.574ZM27.9522 78.7173V99.8098C27.9522 99.9035 27.9523 99.9976 27.9525 100.092C27.9576 102.59 27.9631 105.251 24.4137 105.307C20.7302 105.365 20.4402 102.414 20.4402 99.5204C20.4402 94.7646 20.4208 90.0088 20.4015 85.2541C20.3628 75.7479 20.3242 66.2459 20.4402 56.7568C20.4402 52.5615 19.1639 51.3752 15.1904 51.6645H3.79193C1.76166 51.6645 0.0214715 50.8833 0.0214715 48.7712C-0.0347236 48.2709 0.0197093 47.7645 0.180971 47.2875C0.342233 46.8105 0.606409 46.3746 0.954837 46.0105C1.30326 45.6463 1.7275 45.3628 2.19764 45.18C2.66779 44.9971 3.17243 44.9193 3.67598 44.9521H44.2813C44.785 44.8914 45.2959 44.9423 45.7777 45.1011C46.2595 45.2599 46.7002 45.5227 47.0686 45.8708C47.4369 46.2189 47.7238 46.6438 47.9087 47.1151C48.0937 47.5864 48.1723 48.0925 48.1388 48.5976C48.1388 51.1727 46.0505 51.7514 43.9332 51.7803C42.5399 51.7803 41.1499 51.7964 39.761 51.8125C36.9863 51.8446 34.2159 51.8767 31.4326 51.7803C28.5322 51.7803 27.6621 52.6772 27.7201 55.4838C27.9985 61.6641 27.98 67.8629 27.9614 74.0655L27.9614 74.0667C27.9568 75.6168 27.9522 77.167 27.9522 78.7173ZM62.6274 62.6642C60.0586 63.7712 57.8598 65.5865 56.2891 67.8967C56.2714 67.7619 56.2541 67.6275 56.2369 67.4935C55.8585 64.5502 55.5134 61.866 51.8515 62.2257C48.6324 62.542 48.7762 64.9243 48.9035 67.0335C48.9276 67.4328 48.9511 67.8222 48.9511 68.186V100.534C48.9511 102.848 49.1542 105.308 52.4026 105.308C55.651 105.308 55.999 102.964 55.999 100.447V83.6943C56.2311 73.2783 60.0886 69.1698 70.5009 68.649C72.9083 68.5043 74.2715 67.8677 74.5035 65.2637C74.7355 62.6597 72.9083 61.9074 70.791 61.647C68.0282 61.2043 65.1962 61.5572 62.6274 62.6642ZM163.777 69.9801C163.777 67.5497 163.777 65.0614 167.199 65.0035C170.622 64.9457 171.115 67.4339 171.115 70.1537V103.601C171.115 106.263 170.303 108.346 167.257 108.346C164.212 108.346 163.719 105.944 163.719 103.427V86.7036L163.777 69.9801ZM162.696 50.3884C162.452 51.0152 162.356 51.6895 162.414 52.3593C162.294 53.0237 162.327 53.7066 162.511 54.3564C162.694 55.0062 163.023 55.6059 163.473 56.1103C163.922 56.6147 164.481 57.0105 165.107 57.2679C165.732 57.5253 166.408 57.6376 167.084 57.5963C167.739 57.6267 168.394 57.528 169.01 57.306C169.627 57.084 170.194 56.743 170.679 56.3024C171.164 55.8617 171.557 55.3301 171.836 54.738C172.115 54.1458 172.274 53.5047 172.304 52.8512C172.335 52.1976 172.236 51.5445 172.013 50.9291C171.791 50.3137 171.449 49.748 171.007 49.2644C170.566 48.7808 170.033 48.3887 169.439 48.1105C168.846 47.8324 168.203 47.6736 167.548 47.6432C166.883 47.5301 166.202 47.5704 165.556 47.7611C164.909 47.9519 164.315 48.2878 163.82 48.7433C163.324 49.1987 162.939 49.7615 162.696 50.3884ZM114.7 86.9071L114.7 86.9052L114.7 86.9035C114.664 83.6211 114.629 80.3419 114.616 77.0684C114.616 68.6488 112.063 64.0194 106.379 62.1966C97.6774 59.3032 87.8162 61.9072 83.6977 67.9832L83.5668 68.1742C82.2915 70.033 80.8936 72.0704 83.6977 73.9725C86.598 75.9399 87.9612 74.5222 89.4984 72.3232C90.963 70.1586 93.1184 68.5518 95.6143 67.7638C98.1102 66.9759 100.8 67.0532 103.246 67.9832C107.278 69.1984 107.858 72.41 107.684 75.6506C107.548 78.1838 105.746 78.0648 103.968 77.9475H103.968C103.471 77.9148 102.977 77.8821 102.521 77.9074C97.0801 77.9048 91.7079 79.121 86.801 81.4662C84.1471 82.8812 82.0384 85.1341 80.8051 87.8722C79.5717 90.6104 79.2834 93.6793 79.9852 96.5984C80.506 99.1919 81.889 101.534 83.9103 103.246C85.9315 104.958 88.4728 105.939 91.1226 106.031C94.1009 106.313 97.1056 105.98 99.9496 105.055C102.794 104.129 105.416 102.629 107.655 100.649C108.293 103.745 109.482 106.233 112.933 105.221C115.566 104.448 115.263 102.615 114.97 100.851C114.88 100.303 114.79 99.7612 114.79 99.2603C114.79 95.1409 114.745 91.0215 114.7 86.9071ZM107.916 88.2656C107.737 90.089 107.177 91.8547 106.271 93.4488C105.366 95.043 104.136 96.43 102.66 97.5205C101.184 98.6111 99.4957 99.3808 97.7033 99.7802C95.9109 100.179 94.0544 100.2 92.2537 99.839C90.827 99.6411 89.513 98.9565 88.5349 97.9016C87.5567 96.8467 86.9748 95.4866 86.888 94.0523C86.6286 92.4334 86.926 90.7745 87.7317 89.3456C88.5374 87.9168 89.804 86.8019 91.3256 86.1824C95.2451 84.5015 99.4461 83.5692 103.71 83.4337C107.481 83.1733 108.293 84.5332 107.916 88.2656ZM179.352 87.3979C179.149 73.2205 186.632 64.3958 198.9 64.2511C211.024 64.1354 219.029 72.9023 219 86.4431C218.971 99.9839 211.662 109.127 199.654 109.387C187.647 109.648 179.584 100.852 179.352 87.3979ZM195.913 102.877C196.45 102.975 196.992 103.043 197.537 103.08C206.296 103.861 211.517 97.5824 211.633 86.6745C211.749 75.7666 206.354 69.3145 197.653 70.2982C191.127 71.0505 186.922 76.49 186.487 84.7649C185.994 94.3708 189.677 101.431 195.913 102.877Z" fill="white"/>
</svg>
