<svg width="1920" height="850" viewBox="0 0 1920 850" fill="none" xmlns="http://www.w3.org/2000/svg">
<path fill-rule="evenodd" clip-rule="evenodd" d="M1920 0H0V850H1279.97C1265.49 794.294 1249.9 738.873 1232.86 683.854C1189.07 530.19 1110.7 388.609 1003.77 269.966C999.284 263.532 995.348 256.733 992 249.641C1031.88 258.483 1068.01 279.556 1095.36 309.923C1181.37 391.016 1246.38 491.846 1284.77 603.709C1303.6 653.038 1317.39 703.714 1331.22 754.528C1339.9 786.398 1348.59 818.321 1358.54 850H1394.17C1446.54 686.327 1504.02 526.12 1609.85 387.295C1615.39 382.214 1620.23 375.286 1617.69 369.05C1615.16 362.814 1607.54 366.509 1602.7 369.05C1593.05 373.412 1583.92 378.834 1575.47 385.217C1546.33 407.398 1525.62 436.512 1504.42 466.319C1496.92 476.861 1489.36 487.489 1481.34 497.927C1471.88 448.039 1471.88 399.998 1502.11 357.039C1521.36 328.276 1546.27 303.738 1575.3 284.917C1604.34 266.096 1636.89 253.387 1670.99 247.562C1716.66 241.743 1761.64 231.375 1805.26 216.613C1830.64 206.451 1843.33 218.461 1833.87 243.405C1820.34 287.405 1812.59 332.979 1810.8 378.981C1805.46 420.219 1786.55 458.5 1757.05 487.778C1727.55 517.056 1689.15 535.662 1647.92 540.656C1598.31 548.278 1575.93 573.453 1555.63 617.105C1522.09 692.769 1497.37 770.847 1476.63 850H1920V0Z" fill="url(#paint0_linear_561_1992)"/>
<defs>
<linearGradient id="paint0_linear_561_1992" x1="7.50967e-06" y1="789" x2="1937.74" y2="46.2787" gradientUnits="userSpaceOnUse">
<stop stop-color="#9FC72C"/>
<stop offset="0.473958" stop-color="#22B465"/>
<stop offset="1" stop-color="#4083C8"/>
</linearGradient>
</defs>
</svg>
