<svg width="146" height="77" viewBox="0 0 146 77" fill="none" xmlns="http://www.w3.org/2000/svg">
<path fill-rule="evenodd" clip-rule="evenodd" d="M106.864 14.4452C104.422 16.3057 102.686 18.7477 100.909 21.2479L100.909 21.2483C100.281 22.1323 99.6472 23.0237 98.9754 23.8991C98.1827 19.7146 98.1826 15.6851 100.716 12.0817C102.33 9.66916 104.417 7.61092 106.85 6.03227C109.283 4.45361 112.012 3.38757 114.87 2.89903C118.698 2.41089 122.467 1.54127 126.123 0.303079C128.25 -0.549325 129.313 0.458068 128.521 2.55033C127.387 6.24098 126.737 10.0636 126.587 13.9222C126.139 17.3811 124.554 20.5921 122.082 23.0479C119.61 25.5036 116.392 27.0642 112.936 27.4831C108.779 28.1224 106.903 30.2341 105.202 33.8955C100.08 45.4591 97.4116 57.6946 94.7448 69.9237L94.7433 69.9304C94.511 70.9956 94.2787 72.0608 94.0448 73.1254L94.0212 73.2345C93.5506 75.4068 93.2055 77 90.4097 77C87.5673 77 87.1419 75.0627 86.7165 73.1254C84.2995 61.8117 81.5732 50.5562 78.1507 39.4943C74.48 26.6053 67.9119 14.7297 58.9502 4.77819C58.5745 4.23852 58.2447 3.66824 57.9641 3.07338C61.3062 3.81502 64.3343 5.58255 66.6265 8.12971C73.8353 14.9317 79.2836 23.3891 82.5013 32.7719C84.0791 36.9094 85.235 41.16 86.3941 45.4221L86.3941 45.4223L86.3942 45.4226L86.3943 45.4227L86.3943 45.4228L86.3943 45.4228L86.3943 45.4229C87.5362 49.622 88.6812 53.8322 90.2356 57.9566C95.0503 42.6714 99.9036 27.5412 109.746 14.6196C110.21 14.1933 110.616 13.6122 110.403 13.0891C110.19 12.5661 109.552 12.876 109.146 13.0891C108.338 13.4551 107.573 13.9099 106.864 14.4452ZM18.6348 52.7065V66.8293L18.635 67.0182C18.6384 68.6906 18.642 70.4727 16.2758 70.5101C13.8201 70.5488 13.6268 68.5728 13.6268 66.6355C13.6268 63.4512 13.6139 60.2669 13.601 57.0833V57.0831V57.0831V57.083V57.083V57.083C13.5752 50.718 13.5494 44.356 13.6268 38.0025C13.6268 35.1935 12.7759 34.3992 10.1269 34.5929H2.52795C1.17444 34.5929 0.0143143 34.0698 0.0143143 32.6556C-0.023149 32.3207 0.0131395 31.9816 0.120647 31.6622C0.228155 31.3428 0.404272 31.0509 0.636557 30.8071C0.868842 30.5633 1.15166 30.3735 1.46509 30.251C1.77852 30.1286 2.11495 30.0765 2.45065 30.0984H29.5208C29.8567 30.0578 30.1973 30.0919 30.5184 30.1982C30.8396 30.3046 31.1335 30.4805 31.379 30.7136C31.6246 30.9467 31.8158 31.2312 31.9391 31.5467C32.0624 31.8623 32.1148 32.2012 32.0925 32.5394C32.0925 34.2636 30.7003 34.651 29.2888 34.6704C28.3599 34.6704 27.4332 34.6812 26.5073 34.692C24.6575 34.7135 22.8105 34.7349 20.955 34.6704C19.0214 34.6704 18.4414 35.271 18.48 37.1501C18.6657 41.2883 18.6533 45.4388 18.6409 49.5918C18.6378 50.6299 18.6348 51.6682 18.6348 52.7065ZM41.7515 41.9577C40.039 42.6989 38.5731 43.9144 37.526 45.4612C37.5142 45.371 37.5027 45.2809 37.4912 45.1913C37.2389 43.2205 37.0089 41.4232 34.5676 41.6641C32.4215 41.8759 32.5174 43.471 32.6023 44.8832V44.8833V44.8834V44.8835V44.8835C32.6183 45.1508 32.634 45.4114 32.634 45.6549V67.3137C32.634 68.8635 32.7694 70.5102 34.935 70.5102C37.1006 70.5102 37.3326 68.941 37.3326 67.2556V56.0387C37.4873 49.0645 40.059 46.3136 47.0005 45.9649C48.6054 45.868 49.5142 45.4418 49.6689 43.6982C49.8236 41.9547 48.6054 41.451 47.1939 41.2766C45.352 40.9802 43.464 41.2165 41.7515 41.9577ZM109.185 46.856C109.185 45.2287 109.185 43.5626 111.466 43.5239C113.748 43.4851 114.077 45.1512 114.077 46.9722V69.3672C114.077 71.1495 113.535 72.5443 111.505 72.5443C109.475 72.5443 109.146 70.9364 109.146 69.2509V58.0535L109.185 46.856ZM108.464 33.7383C108.301 34.158 108.237 34.6095 108.276 35.058C108.196 35.5029 108.218 35.9601 108.34 36.3952C108.462 36.8302 108.682 37.2318 108.982 37.5695C109.281 37.9073 109.654 38.1723 110.071 38.3446C110.488 38.517 110.939 38.5922 111.389 38.5645C111.826 38.5848 112.262 38.5188 112.674 38.3702C113.085 38.2215 113.463 37.9932 113.786 37.6981C114.109 37.4031 114.371 37.0472 114.557 36.6507C114.743 36.2542 114.849 35.8249 114.869 35.3873C114.89 34.9497 114.824 34.5124 114.675 34.1004C114.527 33.6883 114.299 33.3096 114.005 32.9858C113.71 32.662 113.355 32.3994 112.959 32.2132C112.564 32.0269 112.135 31.9206 111.698 31.9002C111.255 31.8245 110.801 31.8515 110.37 31.9792C109.939 32.1069 109.543 32.3319 109.213 32.6368C108.882 32.9418 108.626 33.3186 108.464 33.7383ZM76.5263 66.4611C76.5263 63.7025 76.4964 60.9438 76.4665 58.1885C76.4427 55.9904 76.4189 53.7944 76.4103 51.6022C76.4103 45.9647 74.7087 42.8651 70.9188 41.6446C65.1181 39.7073 58.5439 41.4508 55.7983 45.5191L55.711 45.647C54.8608 46.8916 53.9289 48.2557 55.7983 49.5293C57.7318 50.8467 58.6406 49.8974 59.6654 48.4251C60.6418 46.9757 62.0787 45.8998 63.7427 45.3722C65.4066 44.8446 67.1997 44.8964 68.8306 45.5191C71.5183 46.3328 71.905 48.4832 71.789 50.6529C71.6983 52.3491 70.4969 52.2694 69.3117 52.1909C68.9808 52.1689 68.6511 52.1471 68.3472 52.164C64.7199 52.1622 61.1384 52.9766 57.8671 54.5469C56.0979 55.4943 54.6921 57.0027 53.8699 58.8361C53.0476 60.6695 52.8554 62.7243 53.3233 64.6789C53.6705 66.4154 54.5925 67.9836 55.94 69.1297C57.2875 70.2759 58.9817 70.9329 60.7482 70.9944C62.7338 71.1832 64.7368 70.9607 66.6329 70.3408C68.529 69.7209 70.2774 68.7169 71.7696 67.391C72.195 69.4639 72.9878 71.13 75.2888 70.4519C77.044 69.9347 76.8415 68.7073 76.6467 67.5264C76.5861 67.1593 76.5263 66.7966 76.5263 66.4611ZM71.9436 59.0995C71.8243 60.3204 71.4509 61.5027 70.8474 62.57C70.2439 63.6374 69.4238 64.5661 68.4399 65.2963C67.456 66.0265 66.3303 66.5419 65.1353 66.8092C63.9404 67.0766 62.7027 67.09 61.5023 66.8486C60.5511 66.7161 59.6752 66.2577 59.0231 65.5514C58.371 64.8451 57.983 63.9344 57.9252 62.974C57.7522 61.8901 57.9505 60.7794 58.4876 59.8227C59.0248 58.8659 59.8692 58.1195 60.8835 57.7046C63.4966 56.5792 66.2972 55.9549 69.14 55.8642C71.6536 55.6898 72.195 56.6004 71.9436 59.0995ZM119.568 58.5183C119.432 49.0256 124.421 43.1169 132.6 43.02C140.683 42.9426 146.019 48.8125 146 57.879C145.981 66.9455 141.108 73.0673 133.103 73.2416C125.098 73.416 119.723 67.5266 119.568 58.5183ZM130.609 68.8828C130.967 68.9483 131.328 68.9936 131.691 69.0184C137.531 69.5414 141.011 65.3375 141.089 58.034C141.166 50.7304 137.57 46.4103 131.769 47.069C127.418 47.5726 124.615 51.2147 124.324 56.7554C123.996 63.1871 126.451 67.9141 130.609 68.8828Z" fill="white"/>
</svg>
